<svg width="145" height="26" viewBox="0 0 145 26" fill="none" xmlns="http://www.w3.org/2000/svg">
<path d="M7.68425 4.30642L3.81741 20.4017H0L5.62111 0.807453H8.00545L7.68425 4.30642ZM10.7357 20.4017L6.84417 4.30642L6.4859 0.807453H8.9073L14.5778 20.4017H10.7357ZM10.8716 13.0942V16.3644H2.75496V13.0942H10.8716Z" fill="#222222"/>
<path d="M21.9038 14.3592H18.5435L18.5188 11.735H21.249C21.5702 11.735 21.8256 11.6856 22.015 11.587C22.2044 11.4883 22.3403 11.3447 22.4227 11.1563C22.5133 10.9589 22.5586 10.7122 22.5586 10.4162C22.5586 10.156 22.5297 9.93168 22.4721 9.74327C22.4144 9.55487 22.328 9.40235 22.2127 9.28572C22.1056 9.16908 21.9615 9.08385 21.7803 9.03002C21.6073 8.97619 21.4096 8.94928 21.1873 8.94928H19.8036V20.4017H16.3445V5.84058H21.1873C21.9285 5.84058 22.5956 5.92581 23.1886 6.09627C23.7816 6.25776 24.2923 6.50449 24.7205 6.83644C25.1488 7.16839 25.4741 7.59006 25.6965 8.10145C25.9189 8.61284 26.0301 9.21394 26.0301 9.90476C26.0301 10.3533 25.9477 10.775 25.783 11.1698C25.6183 11.5556 25.3794 11.901 25.0665 12.206C24.7535 12.511 24.3623 12.7622 23.8928 12.9596C23.4234 13.148 22.8839 13.2692 22.2744 13.323L21.9038 14.3592ZM21.9038 20.4017H17.654L18.9018 17.293H21.9038C22.2085 17.293 22.4515 17.2391 22.6327 17.1315C22.8139 17.0238 22.9457 16.8623 23.028 16.647C23.1104 16.4227 23.1516 16.158 23.1516 15.853C23.1516 15.5569 23.1145 15.2968 23.0404 15.0725C22.9745 14.8392 22.851 14.6643 22.6698 14.5476C22.4968 14.422 22.2415 14.3592 21.9038 14.3592H19.1118L19.1365 11.735H22.225L23.028 12.7981C23.8681 12.8609 24.5517 13.0538 25.0788 13.3768C25.6059 13.6998 25.993 14.1125 26.2401 14.6149C26.4872 15.1084 26.6107 15.6511 26.6107 16.2433C26.6107 16.9341 26.5078 17.5397 26.3019 18.06C26.096 18.5804 25.7953 19.0155 25.4 19.3654C25.0129 19.7064 24.5229 19.9665 23.9299 20.146C23.3369 20.3164 22.6615 20.4017 21.9038 20.4017Z" fill="#222222"/>
<path d="M34.7397 5.84058V20.4017H31.2682V5.84058H34.7397ZM38.1742 5.84058V8.94928H27.8461V5.84058H38.1742Z" fill="#222222"/>
<path d="M39.2984 13.619V12.6366C39.2984 11.4972 39.4219 10.4879 39.669 9.6087C39.9243 8.72947 40.2867 7.99379 40.7562 7.40166C41.2256 6.80055 41.7898 6.34748 42.4487 6.04244C43.1158 5.72843 43.8611 5.57143 44.6848 5.57143C45.5166 5.57143 46.262 5.72843 46.9208 6.04244C47.588 6.34748 48.1563 6.80055 48.6257 7.40166C49.1034 7.99379 49.4699 8.72947 49.7252 9.6087C49.9805 10.4879 50.1082 11.4972 50.1082 12.6366V13.619C50.1082 14.7495 49.9805 15.7543 49.7252 16.6335C49.4699 17.5128 49.1034 18.2529 48.6257 18.854C48.1563 19.4551 47.5921 19.9082 46.9332 20.2133C46.2743 20.5183 45.5331 20.6708 44.7095 20.6708C43.8859 20.6708 43.1405 20.5183 42.4734 20.2133C41.8145 19.9082 41.2462 19.4551 40.7685 18.854C40.2908 18.2529 39.9243 17.5128 39.669 16.6335C39.4219 15.7543 39.2984 14.7495 39.2984 13.619ZM42.7575 12.6366V13.619C42.7575 14.2919 42.7987 14.8751 42.8811 15.3685C42.9717 15.862 43.0993 16.2702 43.264 16.5932C43.437 16.9162 43.6429 17.1539 43.8817 17.3064C44.1206 17.4589 44.3965 17.5352 44.7095 17.5352C45.0224 17.5352 45.3025 17.4589 45.5495 17.3064C45.7966 17.1539 45.9984 16.9162 46.1549 16.5932C46.3196 16.2702 46.439 15.862 46.5132 15.3685C46.5955 14.8751 46.6367 14.2919 46.6367 13.619V12.6366C46.6367 11.9817 46.5914 11.4075 46.5008 10.9141C46.4102 10.4117 46.2826 10.0035 46.1178 9.68944C45.9531 9.36646 45.7472 9.12422 45.5001 8.96273C45.2613 8.79227 44.9895 8.70704 44.6848 8.70704C44.38 8.70704 44.1082 8.79227 43.8694 8.96273C43.6388 9.12422 43.437 9.36646 43.264 9.68944C43.0993 10.0035 42.9717 10.4117 42.8811 10.9141C42.7987 11.4075 42.7575 11.9817 42.7575 12.6366Z" fill="#222222"/>
<path d="M58.2866 2.55694H62.0917C62.9729 2.55694 63.7924 2.74534 64.5501 3.12215C65.3079 3.49897 65.9667 4.04624 66.5268 4.76398C67.0951 5.48171 67.5357 6.343 67.8487 7.34783C68.1699 8.35266 68.3305 9.47412 68.3305 10.7122C68.3305 11.9234 68.1699 13.0179 67.8487 13.9959C67.5357 14.9738 67.0951 15.8126 66.5268 16.5124C65.9667 17.2122 65.3079 17.7505 64.5501 18.1273C63.7924 18.5041 62.9729 18.6925 62.0917 18.6925H58.2866C57.4054 18.6925 56.5859 18.5086 55.8282 18.1408C55.0704 17.764 54.4033 17.2257 53.8268 16.5259C53.2585 15.8261 52.8138 14.9917 52.4925 14.0228C52.1796 13.0449 52.0231 11.9503 52.0231 10.7391C52.0231 9.50104 52.1796 8.37957 52.4925 7.37474C52.8138 6.36094 53.2585 5.49966 53.8268 4.79089C54.4033 4.07315 55.0704 3.52139 55.8282 3.13561C56.5859 2.74983 57.4054 2.55694 58.2866 2.55694ZM58.2866 5.90787C57.7266 5.90787 57.2283 6.09179 56.7918 6.45963C56.3635 6.8185 56.0299 7.3568 55.7911 8.07453C55.5522 8.79227 55.4328 9.68047 55.4328 10.7391C55.4328 11.5017 55.5028 12.1701 55.6428 12.7443C55.7828 13.3095 55.9805 13.785 56.2358 14.1708C56.4911 14.5566 56.7918 14.8482 57.1377 15.0455C57.4918 15.2429 57.8748 15.3416 58.2866 15.3416H62.1164C62.6764 15.3416 63.1665 15.1622 63.5865 14.8033C64.0148 14.4444 64.3442 13.9241 64.5749 13.2422C64.8137 12.5604 64.9331 11.717 64.9331 10.7122C64.9331 9.92271 64.8631 9.2274 64.7231 8.62629C64.5913 8.02519 64.3978 7.52726 64.1425 7.13251C63.8954 6.72878 63.5989 6.42374 63.253 6.21739C62.907 6.01104 62.5282 5.90787 62.1164 5.90787H58.2866ZM61.9311 0V21.2091H58.4719V0H61.9311Z" fill="#222222"/>
<path d="M70.1589 13.619V12.6366C70.1589 11.4972 70.2824 10.4879 70.5295 9.6087C70.7848 8.72947 71.1472 7.99379 71.6167 7.40166C72.0861 6.80055 72.6503 6.34748 73.3092 6.04244C73.9763 5.72843 74.7217 5.57143 75.5453 5.57143C76.3771 5.57143 77.1225 5.72843 77.7814 6.04244C78.4485 6.34748 79.0168 6.80055 79.4862 7.40166C79.9639 7.99379 80.3304 8.72947 80.5858 9.6087C80.8411 10.4879 80.9687 11.4972 80.9687 12.6366V13.619C80.9687 14.7495 80.8411 15.7543 80.5858 16.6335C80.3304 17.5128 79.9639 18.2529 79.4862 18.854C79.0168 19.4551 78.4526 19.9082 77.7937 20.2133C77.1348 20.5183 76.3936 20.6708 75.57 20.6708C74.7464 20.6708 74.001 20.5183 73.3339 20.2133C72.675 19.9082 72.1067 19.4551 71.629 18.854C71.1513 18.2529 70.7848 17.5128 70.5295 16.6335C70.2824 15.7543 70.1589 14.7495 70.1589 13.619ZM73.618 12.6366V13.619C73.618 14.2919 73.6592 14.8751 73.7416 15.3685C73.8322 15.862 73.9598 16.2702 74.1246 16.5932C74.2975 16.9162 74.5034 17.1539 74.7423 17.3064C74.9811 17.4589 75.257 17.5352 75.57 17.5352C75.883 17.5352 76.163 17.4589 76.4101 17.3064C76.6572 17.1539 76.8589 16.9162 77.0154 16.5932C77.1801 16.2702 77.2996 15.862 77.3737 15.3685C77.456 14.8751 77.4972 14.2919 77.4972 13.619V12.6366C77.4972 11.9817 77.4519 11.4075 77.3613 10.9141C77.2707 10.4117 77.1431 10.0035 76.9784 9.68944C76.8136 9.36646 76.6077 9.12422 76.3606 8.96273C76.1218 8.79227 75.85 8.70704 75.5453 8.70704C75.2405 8.70704 74.9688 8.79227 74.7299 8.96273C74.4993 9.12422 74.2975 9.36646 74.1246 9.68944C73.9598 10.0035 73.8322 10.4117 73.7416 10.9141C73.6592 11.4075 73.618 11.9817 73.618 12.6366Z" fill="#222222"/>
<path d="M86.6145 8.63975V26H83.1678V5.84058H86.3551L86.6145 8.63975ZM93.5575 12.6232V13.5921C93.5575 14.7315 93.467 15.7409 93.2858 16.6201C93.1046 17.4903 92.8328 18.2305 92.4704 18.8406C92.1162 19.4417 91.6715 19.8992 91.1361 20.2133C90.6008 20.5183 89.9749 20.6708 89.2583 20.6708C88.5912 20.6708 88.0147 20.5003 87.5288 20.1594C87.0511 19.8095 86.6475 19.3295 86.3181 18.7195C85.9886 18.1094 85.7251 17.3961 85.5274 16.5797C85.3297 15.7633 85.1774 14.8885 85.0703 13.9555V12.4482C85.1691 11.4524 85.3133 10.5373 85.5027 9.7029C85.6921 8.85956 85.9516 8.12836 86.281 7.50932C86.6187 6.89027 87.0264 6.41477 87.504 6.08282C87.99 5.74189 88.5665 5.57143 89.2336 5.57143C89.9584 5.57143 90.5884 5.71498 91.1238 6.00207C91.6674 6.28917 92.1162 6.72429 92.4704 7.30745C92.8328 7.88164 93.1046 8.61284 93.2858 9.50104C93.467 10.3892 93.5575 11.43 93.5575 12.6232ZM90.0861 13.5921V12.6232C90.0861 11.9234 90.0531 11.3268 89.9872 10.8333C89.9213 10.3399 89.8143 9.93616 89.666 9.62215C89.5178 9.30814 89.3242 9.07936 89.0854 8.93582C88.8465 8.79227 88.5541 8.7205 88.2082 8.7205C87.8706 8.7205 87.5741 8.79227 87.3187 8.93582C87.0717 9.07936 86.8699 9.2902 86.7134 9.56832C86.5569 9.83747 86.4375 10.1694 86.3551 10.5642C86.2728 10.95 86.2275 11.3896 86.2192 11.883V14.5207C86.2357 15.1039 86.3057 15.6197 86.4292 16.0683C86.561 16.5169 86.771 16.8758 87.0593 17.1449C87.3476 17.4051 87.7388 17.5352 88.2329 17.5352C88.5871 17.5352 88.8795 17.4545 89.1101 17.293C89.3489 17.1315 89.5425 16.8892 89.6907 16.5663C89.839 16.2433 89.9419 15.8351 89.9996 15.3416C90.0572 14.8482 90.0861 14.265 90.0861 13.5921Z" fill="#222222"/>
<path d="M101.464 14.3592H98.1039L98.0791 11.735H100.809C101.131 11.735 101.386 11.6856 101.575 11.587C101.765 11.4883 101.901 11.3447 101.983 11.1563C102.074 10.9589 102.119 10.7122 102.119 10.4162C102.119 10.156 102.09 9.93168 102.032 9.74327C101.975 9.55487 101.888 9.40235 101.773 9.28572C101.666 9.16908 101.522 9.08385 101.341 9.03002C101.168 8.97619 100.97 8.94928 100.748 8.94928H99.364V20.4017H95.9048V5.84058H100.748C101.489 5.84058 102.156 5.92581 102.749 6.09627C103.342 6.25776 103.853 6.50449 104.281 6.83644C104.709 7.16839 105.035 7.59006 105.257 8.10145C105.479 8.61284 105.59 9.21394 105.59 9.90476C105.59 10.3533 105.508 10.775 105.343 11.1698C105.179 11.5556 104.94 11.901 104.627 12.206C104.314 12.511 103.923 12.7622 103.453 12.9596C102.984 13.148 102.444 13.2692 101.835 13.323L101.464 14.3592ZM101.464 20.4017H97.2144L98.4621 17.293H101.464C101.769 17.293 102.012 17.2391 102.193 17.1315C102.374 17.0238 102.506 16.8623 102.588 16.647C102.671 16.4227 102.712 16.158 102.712 15.853C102.712 15.5569 102.675 15.2968 102.601 15.0725C102.535 14.8392 102.411 14.6643 102.23 14.5476C102.057 14.422 101.802 14.3592 101.464 14.3592H98.6721L98.6969 11.735H101.785L102.588 12.7981C103.428 12.8609 104.112 13.0538 104.639 13.3768C105.166 13.6998 105.553 14.1125 105.8 14.6149C106.048 15.1084 106.171 15.6511 106.171 16.2433C106.171 16.9341 106.068 17.5397 105.862 18.06C105.656 18.5804 105.356 19.0155 104.96 19.3654C104.573 19.7064 104.083 19.9665 103.49 20.146C102.897 20.3164 102.222 20.4017 101.464 20.4017Z" fill="#222222"/>
<path d="M114.177 17.0507V10.3219C114.177 9.88233 114.127 9.53244 114.028 9.27226C113.938 9.01208 113.798 8.82367 113.608 8.70704C113.427 8.58144 113.205 8.51863 112.941 8.51863C112.645 8.51863 112.398 8.58592 112.2 8.7205C112.002 8.85507 111.854 9.04797 111.755 9.29917C111.665 9.55038 111.619 9.85093 111.619 10.2008H108.148C108.148 9.57281 108.259 8.98068 108.481 8.42443C108.704 7.85921 109.029 7.36577 109.457 6.9441C109.894 6.51346 110.413 6.17702 111.014 5.93478C111.615 5.69255 112.29 5.57143 113.04 5.57143C113.929 5.57143 114.72 5.73741 115.412 6.06936C116.104 6.39234 116.651 6.90821 117.055 7.61698C117.459 8.32574 117.66 9.24534 117.66 10.3758V16.8623C117.66 17.6787 117.697 18.3427 117.772 18.854C117.854 19.3654 117.973 19.805 118.13 20.1729V20.4017H114.646C114.49 19.9979 114.37 19.4955 114.288 18.8944C114.214 18.2843 114.177 17.6698 114.177 17.0507ZM114.597 11.5062L114.609 13.7671H113.336C113.007 13.7671 112.719 13.8254 112.472 13.942C112.233 14.0587 112.031 14.2246 111.866 14.44C111.702 14.6463 111.578 14.8885 111.496 15.1667C111.422 15.4448 111.385 15.7409 111.385 16.0549C111.385 16.4048 111.43 16.7008 111.52 16.9431C111.611 17.1853 111.747 17.3692 111.928 17.4948C112.109 17.6204 112.323 17.6832 112.571 17.6832C112.949 17.6832 113.279 17.598 113.559 17.4275C113.839 17.2571 114.045 17.0507 114.177 16.8085C114.317 16.5663 114.362 16.342 114.312 16.1356L115.103 17.6025C115.004 17.9344 114.868 18.2799 114.695 18.6387C114.531 18.9976 114.321 19.3295 114.065 19.6346C113.81 19.9396 113.493 20.1908 113.114 20.3882C112.743 20.5766 112.303 20.6708 111.792 20.6708C111.076 20.6708 110.421 20.4914 109.828 20.1325C109.235 19.7736 108.765 19.2712 108.42 18.6253C108.082 17.9793 107.913 17.2122 107.913 16.324C107.913 15.5883 108.02 14.9244 108.234 14.3323C108.457 13.7312 108.786 13.2243 109.223 12.8116C109.659 12.3899 110.211 12.0669 110.878 11.8427C111.545 11.6184 112.328 11.5062 113.225 11.5062H114.597Z" fill="#222222"/>
<path d="M123.677 8.63975V26H120.23V5.84058H123.417L123.677 8.63975ZM130.62 12.6232V13.5921C130.62 14.7315 130.529 15.7409 130.348 16.6201C130.167 17.4903 129.895 18.2305 129.533 18.8406C129.179 19.4417 128.734 19.8992 128.198 20.2133C127.663 20.5183 127.037 20.6708 126.321 20.6708C125.653 20.6708 125.077 20.5003 124.591 20.1594C124.113 19.8095 123.71 19.3295 123.38 18.7195C123.051 18.1094 122.787 17.3961 122.59 16.5797C122.392 15.7633 122.24 14.8885 122.133 13.9555V12.4482C122.231 11.4524 122.376 10.5373 122.565 9.7029C122.754 8.85956 123.014 8.12836 123.343 7.50932C123.681 6.89027 124.089 6.41477 124.566 6.08282C125.052 5.74189 125.629 5.57143 126.296 5.57143C127.021 5.57143 127.651 5.71498 128.186 6.00207C128.73 6.28917 129.179 6.72429 129.533 7.30745C129.895 7.88164 130.167 8.61284 130.348 9.50104C130.529 10.3892 130.62 11.43 130.62 12.6232ZM127.148 13.5921V12.6232C127.148 11.9234 127.115 11.3268 127.049 10.8333C126.984 10.3399 126.877 9.93616 126.728 9.62215C126.58 9.30814 126.386 9.07936 126.148 8.93582C125.909 8.79227 125.616 8.7205 125.271 8.7205C124.933 8.7205 124.636 8.79227 124.381 8.93582C124.134 9.07936 123.932 9.2902 123.776 9.56832C123.619 9.83747 123.5 10.1694 123.417 10.5642C123.335 10.95 123.29 11.3896 123.282 11.883V14.5207C123.298 15.1039 123.368 15.6197 123.492 16.0683C123.623 16.5169 123.833 16.8758 124.122 17.1449C124.41 17.4051 124.801 17.5352 125.295 17.5352C125.649 17.5352 125.942 17.4545 126.172 17.293C126.411 17.1315 126.605 16.8892 126.753 16.5663C126.901 16.2433 127.004 15.8351 127.062 15.3416C127.12 14.8482 127.148 14.265 127.148 13.5921Z" fill="#222222"/>
<path d="M134.561 5.84058H138.02L137.958 10.6718C137.933 12.2509 137.789 13.6056 137.526 14.736C137.262 15.8665 136.908 16.813 136.463 17.5756C136.027 18.3382 135.52 18.9482 134.944 19.4058C134.367 19.8544 133.754 20.1863 133.103 20.4017H132.485L132.448 17.3064L132.782 17.266C133.177 16.7816 133.486 16.3106 133.708 15.853C133.939 15.3954 134.108 14.9199 134.215 14.4265C134.322 13.9241 134.392 13.3723 134.425 12.7712C134.466 12.1611 134.491 11.4614 134.499 10.6718L134.561 5.84058ZM135.463 5.84058H143.246V20.4017H139.799V9.04348H135.463V5.84058ZM131.781 17.266H145V24.7888H141.541V20.4017H135.339V24.7888H131.781V17.266Z" fill="#222222"/>
</svg>
