<svg width="13" height="12" viewBox="0 0 13 12" fill="none" xmlns="http://www.w3.org/2000/svg">
<g clip-path="url(#clip0_173_307)">
<mask id="mask0_173_307" style="mask-type:luminance" maskUnits="userSpaceOnUse" x="0" y="0" width="13" height="12">
<path d="M0.5 0H12.5V12H0.5V0Z" fill="white"/>
</mask>
<g mask="url(#mask0_173_307)">
<path d="M9.624 6.705C9.231 7.501 8.699 8.295 8.154 9.008C7.63758 9.67918 7.08545 10.3221 6.5 10.934C5.91446 10.3215 5.36232 9.67789 4.846 9.006C4.301 8.294 3.768 7.501 3.376 6.704C2.978 5.9 2.75 5.146 2.75 4.5C2.75 3.50544 3.14509 2.55161 3.84835 1.84835C4.55161 1.14509 5.50544 0.75 6.5 0.75C7.49456 0.75 8.44839 1.14509 9.15165 1.84835C9.85491 2.55161 10.25 3.50544 10.25 4.5C10.25 5.146 10.021 5.9 9.624 6.705ZM6.5 12C6.5 12 11 7.736 11 4.5C11 3.90905 10.8836 3.32389 10.6575 2.77792C10.4313 2.23196 10.0998 1.73588 9.68198 1.31802C9.26412 0.900156 8.76804 0.568688 8.22208 0.342542C7.67611 0.116396 7.09095 0 6.5 0C5.90905 0 5.32389 0.116396 4.77792 0.342542C4.23196 0.568688 3.73588 0.900156 3.31802 1.31802C2.90016 1.73588 2.56869 2.23196 2.34254 2.77792C2.1164 3.32389 2 3.90905 2 4.5C2 7.736 6.5 12 6.5 12Z" fill="#222222"/>
<path d="M6.5 6C6.10218 6 5.72064 5.84196 5.43934 5.56066C5.15804 5.27936 5 4.89782 5 4.5C5 4.10218 5.15804 3.72064 5.43934 3.43934C5.72064 3.15804 6.10218 3 6.5 3C6.89782 3 7.27936 3.15804 7.56066 3.43934C7.84196 3.72064 8 4.10218 8 4.5C8 4.89782 7.84196 5.27936 7.56066 5.56066C7.27936 5.84196 6.89782 6 6.5 6ZM6.5 6.75C7.09674 6.75 7.66903 6.51295 8.09099 6.09099C8.51295 5.66903 8.75 5.09674 8.75 4.5C8.75 3.90326 8.51295 3.33097 8.09099 2.90901C7.66903 2.48705 7.09674 2.25 6.5 2.25C5.90326 2.25 5.33097 2.48705 4.90901 2.90901C4.48705 3.33097 4.25 3.90326 4.25 4.5C4.25 5.09674 4.48705 5.66903 4.90901 6.09099C5.33097 6.51295 5.90326 6.75 6.5 6.75Z" fill="#222222"/>
</g>
</g>
<defs>
<clipPath id="clip0_173_307">
<rect width="12" height="12" fill="white" transform="translate(0.5)"/>
</clipPath>
</defs>
</svg>
