<svg width="167" height="28" viewBox="0 0 167 28" fill="none" xmlns="http://www.w3.org/2000/svg">
<path d="M8.85013 4.97205L4.39661 21.6863H0L6.47397 1.33851H9.22007L8.85013 4.97205ZM12.3646 21.6863L7.88259 4.97205L7.46997 1.33851H10.2588L16.7896 21.6863H12.3646ZM12.5211 14.0978V17.4938H3.17296V14.0978H12.5211Z" fill="#222222"/>
<path d="M25.2271 15.4115H21.357L21.3285 12.6863H24.473C24.843 12.6863 25.137 12.6351 25.3552 12.5326C25.5734 12.4301 25.7299 12.2811 25.8247 12.0854C25.9291 11.8804 25.9813 11.6242 25.9813 11.3168C25.9813 11.0466 25.9481 10.8137 25.8817 10.618C25.8153 10.4224 25.7157 10.264 25.5829 10.1429C25.4595 10.0217 25.2935 9.93323 25.0849 9.87733C24.8857 9.82143 24.658 9.79348 24.4019 9.79348H22.8083V21.6863H18.8243V6.56522H24.4019C25.2556 6.56522 26.0239 6.65373 26.7069 6.83075C27.3899 6.99845 27.978 7.25466 28.4712 7.59938C28.9645 7.9441 29.3392 8.38199 29.5953 8.91304C29.8514 9.4441 29.9795 10.0683 29.9795 10.7857C29.9795 11.2516 29.8846 11.6894 29.6949 12.0994C29.5052 12.5 29.2301 12.8587 28.8696 13.1755C28.5092 13.4922 28.0586 13.7531 27.5179 13.9581C26.9773 14.1537 26.3559 14.2795 25.654 14.3354L25.2271 15.4115ZM25.2271 21.6863H20.3325L21.7696 18.4581H25.2271C25.5781 18.4581 25.8579 18.4022 26.0666 18.2904C26.2753 18.1786 26.4271 18.0109 26.5219 17.7873C26.6168 17.5543 26.6642 17.2795 26.6642 16.9627C26.6642 16.6553 26.6215 16.3851 26.5362 16.1522C26.4603 15.9099 26.318 15.7283 26.1093 15.6071C25.9101 15.4767 25.6161 15.4115 25.2271 15.4115H22.0115L22.04 12.6863H25.5971L26.5219 13.7904C27.4895 13.8556 28.2768 14.0559 28.8839 14.3913C29.491 14.7267 29.9368 15.1553 30.2214 15.677C30.5059 16.1894 30.6482 16.7531 30.6482 17.368C30.6482 18.0854 30.5296 18.7143 30.2925 19.2547C30.0554 19.795 29.7091 20.2469 29.2538 20.6102C28.808 20.9643 28.2436 21.2345 27.5606 21.4208C26.8777 21.5978 26.0998 21.6863 25.2271 21.6863Z" fill="#222222"/>
<path d="M40.0106 6.56522V21.6863H36.0124V6.56522H40.0106ZM43.9661 6.56522V9.79348H32.0711V6.56522H43.9661Z" fill="#222222"/>
<path d="M45.2609 14.6429V13.6227C45.2609 12.4394 45.4032 11.3913 45.6877 10.4783C45.9818 9.56522 46.3992 8.80124 46.9398 8.18634C47.4805 7.56211 48.1303 7.09161 48.8892 6.77484C49.6575 6.44876 50.5159 6.28571 51.4645 6.28571C52.4226 6.28571 53.281 6.44876 54.0399 6.77484C54.8082 7.09161 55.4627 7.56211 56.0034 8.18634C56.5536 8.80124 56.9757 9.56522 57.2697 10.4783C57.5638 11.3913 57.7108 12.4394 57.7108 13.6227V14.6429C57.7108 15.8168 57.5638 16.8602 57.2697 17.7733C56.9757 18.6863 56.5536 19.455 56.0034 20.0792C55.4627 20.7034 54.813 21.1739 54.0541 21.4907C53.2952 21.8075 52.4415 21.9658 51.493 21.9658C50.5444 21.9658 49.686 21.8075 48.9176 21.4907C48.1588 21.1739 47.5042 20.7034 46.9541 20.0792C46.4039 19.455 45.9818 18.6863 45.6877 17.7733C45.4032 16.8602 45.2609 15.8168 45.2609 14.6429ZM49.2449 13.6227V14.6429C49.2449 15.3416 49.2923 15.9472 49.3871 16.4596C49.4915 16.972 49.6385 17.396 49.8282 17.7314C50.0274 18.0668 50.2646 18.3137 50.5397 18.472C50.8147 18.6304 51.1325 18.7096 51.493 18.7096C51.8534 18.7096 52.1759 18.6304 52.4605 18.472C52.7451 18.3137 52.9775 18.0668 53.1577 17.7314C53.3474 17.396 53.485 16.972 53.5703 16.4596C53.6652 15.9472 53.7126 15.3416 53.7126 14.6429V13.6227C53.7126 12.9425 53.6604 12.3463 53.5561 11.8339C53.4518 11.3121 53.3047 10.8882 53.115 10.5621C52.9253 10.2267 52.6882 9.97515 52.4036 9.80745C52.1285 9.63043 51.8155 9.54193 51.4645 9.54193C51.1135 9.54193 50.8005 9.63043 50.5254 9.80745C50.2598 9.97515 50.0274 10.2267 49.8282 10.5621C49.6385 10.8882 49.4915 11.3121 49.3871 11.8339C49.2923 12.3463 49.2449 12.9425 49.2449 13.6227Z" fill="#222222"/>
<path d="M67.1301 3.15528H71.5125C72.5275 3.15528 73.4713 3.35093 74.344 3.74224C75.2166 4.13354 75.9755 4.70186 76.6205 5.44721C77.275 6.19255 77.7825 7.08696 78.143 8.13043C78.5129 9.17391 78.6979 10.3385 78.6979 11.6242C78.6979 12.882 78.5129 14.0186 78.143 15.0342C77.7825 16.0497 77.275 16.9208 76.6205 17.6475C75.9755 18.3742 75.2166 18.9332 74.344 19.3245C73.4713 19.7158 72.5275 19.9115 71.5125 19.9115H67.1301C66.1151 19.9115 65.1713 19.7205 64.2986 19.3385C63.4259 18.9472 62.6576 18.3882 61.9936 17.6615C61.3391 16.9348 60.8269 16.0683 60.4569 15.0621C60.0965 14.0466 59.9162 12.9099 59.9162 11.6522C59.9162 10.3665 60.0965 9.20186 60.4569 8.15839C60.8269 7.10559 61.3391 6.21118 61.9936 5.47516C62.6576 4.72981 63.4259 4.15683 64.2986 3.75621C65.1713 3.35559 66.1151 3.15528 67.1301 3.15528ZM67.1301 6.63509C66.4851 6.63509 65.9112 6.82609 65.4084 7.20807C64.9152 7.58075 64.531 8.13975 64.2559 8.88509C63.9809 9.63043 63.8433 10.5528 63.8433 11.6522C63.8433 12.4441 63.9239 13.1382 64.0852 13.7345C64.2465 14.3214 64.4741 14.8152 64.7682 15.2158C65.0622 15.6165 65.4084 15.9193 65.8068 16.1242C66.2147 16.3292 66.6558 16.4317 67.1301 16.4317H71.5409C72.186 16.4317 72.7504 16.2453 73.2341 15.8727C73.7274 15.5 74.1068 14.9596 74.3724 14.2516C74.6475 13.5435 74.785 12.6677 74.785 11.6242C74.785 10.8043 74.7044 10.0823 74.5432 9.45807C74.3914 8.83385 74.1685 8.31677 73.8744 7.90683C73.5898 7.48758 73.2484 7.17081 72.85 6.95652C72.4516 6.74224 72.0152 6.63509 71.5409 6.63509H67.1301ZM71.3275 0.5V22.5248H67.3435V0.5H71.3275Z" fill="#222222"/>
<path d="M80.8037 14.6429V13.6227C80.8037 12.4394 80.946 11.3913 81.2306 10.4783C81.5246 9.56522 81.942 8.80124 82.4827 8.18634C83.0233 7.56211 83.6731 7.09161 84.432 6.77484C85.2003 6.44876 86.0588 6.28571 87.0073 6.28571C87.9654 6.28571 88.8238 6.44876 89.5827 6.77484C90.351 7.09161 91.0055 7.56211 91.5462 8.18634C92.0964 8.80124 92.5185 9.56522 92.8126 10.4783C93.1066 11.3913 93.2536 12.4394 93.2536 13.6227V14.6429C93.2536 15.8168 93.1066 16.8602 92.8126 17.7733C92.5185 18.6863 92.0964 19.455 91.5462 20.0792C91.0055 20.7034 90.3558 21.1739 89.5969 21.4907C88.8381 21.8075 87.9844 21.9658 87.0358 21.9658C86.0872 21.9658 85.2288 21.8075 84.4604 21.4907C83.7016 21.1739 83.0471 20.7034 82.4969 20.0792C81.9467 19.455 81.5246 18.6863 81.2306 17.7733C80.946 16.8602 80.8037 15.8168 80.8037 14.6429ZM84.7877 13.6227V14.6429C84.7877 15.3416 84.8351 15.9472 84.93 16.4596C85.0343 16.972 85.1813 17.396 85.371 17.7314C85.5702 18.0668 85.8074 18.3137 86.0825 18.472C86.3576 18.6304 86.6753 18.7096 87.0358 18.7096C87.3962 18.7096 87.7188 18.6304 88.0033 18.472C88.2879 18.3137 88.5203 18.0668 88.7005 17.7314C88.8902 17.396 89.0278 16.972 89.1131 16.4596C89.208 15.9472 89.2554 15.3416 89.2554 14.6429V13.6227C89.2554 12.9425 89.2033 12.3463 89.0989 11.8339C88.9946 11.3121 88.8475 10.8882 88.6578 10.5621C88.4681 10.2267 88.231 9.97515 87.9464 9.80745C87.6713 9.63043 87.3583 9.54193 87.0073 9.54193C86.6564 9.54193 86.3433 9.63043 86.0682 9.80745C85.8026 9.97515 85.5702 10.2267 85.371 10.5621C85.1813 10.8882 85.0343 11.3121 84.93 11.8339C84.8351 12.3463 84.7877 12.9425 84.7877 13.6227Z" fill="#222222"/>
<path d="M99.7561 9.47205V27.5H95.7863V6.56522H99.4573L99.7561 9.47205ZM107.752 13.6087V14.6149C107.752 15.7981 107.648 16.8463 107.439 17.7593C107.231 18.663 106.918 19.4317 106.5 20.0652C106.092 20.6894 105.58 21.1646 104.964 21.4907C104.347 21.8075 103.626 21.9658 102.801 21.9658C102.033 21.9658 101.369 21.7888 100.809 21.4348C100.259 21.0714 99.794 20.573 99.4146 19.9394C99.0352 19.3059 98.7316 18.5652 98.504 17.7174C98.2763 16.8696 98.1008 15.9612 97.9775 14.9922V13.427C98.0913 12.3929 98.2573 11.4425 98.4755 10.5761C98.6937 9.70031 98.9925 8.94099 99.3719 8.29814C99.7608 7.65528 100.23 7.16149 100.781 6.81677C101.34 6.46273 102.004 6.28571 102.773 6.28571C103.607 6.28571 104.333 6.43478 104.949 6.73292C105.576 7.03106 106.092 7.48292 106.5 8.08851C106.918 8.68478 107.231 9.4441 107.439 10.3665C107.648 11.2888 107.752 12.3696 107.752 13.6087ZM103.754 14.6149V13.6087C103.754 12.882 103.716 12.2624 103.64 11.75C103.565 11.2376 103.441 10.8183 103.271 10.4922C103.1 10.1661 102.877 9.92857 102.602 9.7795C102.327 9.63043 101.99 9.5559 101.592 9.5559C101.203 9.5559 100.861 9.63043 100.567 9.7795C100.283 9.92857 100.05 10.1475 99.8699 10.4363C99.6897 10.7158 99.5521 11.0606 99.4573 11.4705C99.3624 11.8711 99.3102 12.3276 99.3008 12.8401V15.5792C99.3197 16.1848 99.4004 16.7205 99.5426 17.1863C99.6944 17.6522 99.9363 18.0248 100.268 18.3043C100.6 18.5745 101.051 18.7096 101.62 18.7096C102.028 18.7096 102.365 18.6258 102.63 18.4581C102.905 18.2904 103.128 18.0388 103.299 17.7034C103.47 17.368 103.588 16.9441 103.655 16.4317C103.721 15.9193 103.754 15.3137 103.754 14.6149Z" fill="#222222"/>
<path d="M116.859 15.4115H112.989L112.96 12.6863H116.105C116.475 12.6863 116.769 12.6351 116.987 12.5326C117.205 12.4301 117.361 12.2811 117.456 12.0854C117.561 11.8804 117.613 11.6242 117.613 11.3168C117.613 11.0466 117.58 10.8137 117.513 10.618C117.447 10.4224 117.347 10.264 117.214 10.1429C117.091 10.0217 116.925 9.93323 116.716 9.87733C116.517 9.82143 116.29 9.79348 116.033 9.79348H114.44V21.6863H110.456V6.56522H116.033C116.887 6.56522 117.656 6.65373 118.339 6.83075C119.021 6.99845 119.61 7.25466 120.103 7.59938C120.596 7.9441 120.971 8.38199 121.227 8.91304C121.483 9.4441 121.611 10.0683 121.611 10.7857C121.611 11.2516 121.516 11.6894 121.326 12.0994C121.137 12.5 120.862 12.8587 120.501 13.1755C120.141 13.4922 119.69 13.7531 119.15 13.9581C118.609 14.1537 117.988 14.2795 117.286 14.3354L116.859 15.4115ZM116.859 21.6863H111.964L113.401 18.4581H116.859C117.21 18.4581 117.49 18.4022 117.698 18.2904C117.907 18.1786 118.059 18.0109 118.154 17.7873C118.248 17.5543 118.296 17.2795 118.296 16.9627C118.296 16.6553 118.253 16.3851 118.168 16.1522C118.092 15.9099 117.95 15.7283 117.741 15.6071C117.542 15.4767 117.248 15.4115 116.859 15.4115H113.643L113.672 12.6863H117.229L118.154 13.7904C119.121 13.8556 119.908 14.0559 120.515 14.3913C121.123 14.7267 121.568 15.1553 121.853 15.677C122.138 16.1894 122.28 16.7531 122.28 17.368C122.28 18.0854 122.161 18.7143 121.924 19.2547C121.687 19.795 121.341 20.2469 120.885 20.6102C120.44 20.9643 119.875 21.2345 119.192 21.4208C118.509 21.5978 117.731 21.6863 116.859 21.6863Z" fill="#222222"/>
<path d="M131.5 18.2065V11.2189C131.5 10.7624 131.443 10.3991 131.329 10.1289C131.225 9.8587 131.064 9.66304 130.845 9.54193C130.637 9.41149 130.381 9.34627 130.077 9.34627C129.736 9.34627 129.451 9.41615 129.223 9.5559C128.996 9.69565 128.825 9.89596 128.711 10.1568C128.607 10.4177 128.555 10.7298 128.555 11.0932H124.556C124.556 10.441 124.684 9.82609 124.941 9.24845C125.197 8.66149 125.571 8.14907 126.065 7.71118C126.567 7.26398 127.165 6.9146 127.857 6.66304C128.55 6.41149 129.328 6.28571 130.191 6.28571C131.215 6.28571 132.126 6.45807 132.923 6.80279C133.72 7.1382 134.35 7.67391 134.815 8.40994C135.28 9.14596 135.512 10.1009 135.512 11.2748V18.0109C135.512 18.8587 135.555 19.5481 135.64 20.0792C135.735 20.6102 135.873 21.0668 136.053 21.4488V21.6863H132.041C131.86 21.2671 131.723 20.7453 131.628 20.1211C131.543 19.4876 131.5 18.8494 131.5 18.2065ZM131.984 12.4488L131.998 14.7966H130.532C130.153 14.7966 129.821 14.8571 129.536 14.9783C129.261 15.0994 129.029 15.2717 128.839 15.4953C128.649 15.7096 128.507 15.9612 128.412 16.25C128.327 16.5388 128.284 16.8463 128.284 17.1724C128.284 17.5357 128.336 17.8432 128.441 18.0947C128.545 18.3463 128.702 18.5373 128.91 18.6677C129.119 18.7981 129.366 18.8634 129.65 18.8634C130.087 18.8634 130.466 18.7748 130.788 18.5978C131.111 18.4208 131.348 18.2065 131.5 17.955C131.661 17.7034 131.713 17.4705 131.656 17.2562L132.567 18.7795C132.453 19.1242 132.297 19.4829 132.097 19.8556C131.908 20.2283 131.666 20.573 131.372 20.8898C131.078 21.2065 130.713 21.4674 130.276 21.6724C129.849 21.868 129.342 21.9658 128.754 21.9658C127.929 21.9658 127.174 21.7795 126.491 21.4068C125.808 21.0342 125.268 20.5124 124.869 19.8416C124.48 19.1708 124.286 18.3742 124.286 17.4519C124.286 16.6879 124.409 15.9984 124.656 15.3835C124.912 14.7593 125.291 14.2329 125.794 13.8043C126.297 13.3665 126.933 13.0311 127.701 12.7981C128.469 12.5652 129.37 12.4488 130.404 12.4488H131.984Z" fill="#222222"/>
<path d="M142.442 9.47205V27.5H138.472V6.56522H142.143L142.442 9.47205ZM150.438 13.6087V14.6149C150.438 15.7981 150.334 16.8463 150.125 17.7593C149.916 18.663 149.603 19.4317 149.186 20.0652C148.778 20.6894 148.266 21.1646 147.649 21.4907C147.033 21.8075 146.312 21.9658 145.486 21.9658C144.718 21.9658 144.054 21.7888 143.495 21.4348C142.944 21.0714 142.48 20.573 142.1 19.9394C141.721 19.3059 141.417 18.5652 141.189 17.7174C140.962 16.8696 140.786 15.9612 140.663 14.9922V13.427C140.777 12.3929 140.943 11.4425 141.161 10.5761C141.379 9.70031 141.678 8.94099 142.057 8.29814C142.446 7.65528 142.916 7.16149 143.466 6.81677C144.026 6.46273 144.69 6.28571 145.458 6.28571C146.293 6.28571 147.018 6.43478 147.635 6.73292C148.261 7.03106 148.778 7.48292 149.186 8.08851C149.603 8.68478 149.916 9.4441 150.125 10.3665C150.334 11.2888 150.438 12.3696 150.438 13.6087ZM146.44 14.6149V13.6087C146.44 12.882 146.402 12.2624 146.326 11.75C146.25 11.2376 146.127 10.8183 145.956 10.4922C145.785 10.1661 145.562 9.92857 145.287 9.7795C145.012 9.63043 144.675 9.5559 144.277 9.5559C143.888 9.5559 143.547 9.63043 143.253 9.7795C142.968 9.92857 142.736 10.1475 142.555 10.4363C142.375 10.7158 142.238 11.0606 142.143 11.4705C142.048 11.8711 141.996 12.3276 141.986 12.8401V15.5792C142.005 16.1848 142.086 16.7205 142.228 17.1863C142.38 17.6522 142.622 18.0248 142.954 18.3043C143.286 18.5745 143.736 18.7096 144.306 18.7096C144.713 18.7096 145.05 18.6258 145.316 18.4581C145.591 18.2904 145.814 18.0388 145.984 17.7034C146.155 17.368 146.274 16.9441 146.34 16.4317C146.407 15.9193 146.44 15.3137 146.44 14.6149Z" fill="#222222"/>
<path d="M154.977 6.56522H158.961L158.89 11.5823C158.861 13.222 158.695 14.6289 158.392 15.8028C158.088 16.9767 157.68 17.9596 157.168 18.7516C156.665 19.5435 156.082 20.177 155.418 20.6522C154.754 21.118 154.047 21.4627 153.298 21.6863H152.587L152.544 18.472L152.928 18.4301C153.383 17.927 153.739 17.4379 153.995 16.9627C154.261 16.4876 154.455 15.9938 154.579 15.4814C154.702 14.9596 154.782 14.3866 154.82 13.7624C154.868 13.1289 154.896 12.4022 154.906 11.5823L154.977 6.56522ZM156.016 6.56522H164.98V21.6863H161.01V9.8913H156.016V6.56522ZM151.775 18.4301H167V26.2422H163.016V21.6863H155.873V26.2422H151.775V18.4301Z" fill="#222222"/>
</svg>
