<svg width="31" height="32" viewBox="0 0 31 32" fill="none" xmlns="http://www.w3.org/2000/svg">
<path d="M30.74 23.8026C30.3832 23.4225 29.1233 22.2987 26.8073 20.8119C24.4742 19.3121 22.7536 18.3769 22.26 18.1588C22.2165 18.1395 22.1686 18.1325 22.1214 18.1384C22.0742 18.1443 22.0294 18.1629 21.992 18.1923C21.197 18.8124 19.8585 19.9512 19.7868 20.0127C19.3233 20.4099 19.3233 20.4099 18.9439 20.2862C18.2767 20.0674 16.2041 18.9668 14.398 17.1567C12.5919 15.3465 11.4346 13.2226 11.2159 12.5561C11.0908 12.176 11.0908 12.176 11.4893 11.7125C11.5508 11.6408 12.6904 10.3023 13.3104 9.50796C13.3398 9.47055 13.3585 9.42584 13.3644 9.37862C13.3703 9.33141 13.3632 9.28348 13.3439 9.23999C13.1258 8.74575 12.1907 7.02583 10.6909 4.69272C9.202 2.37739 8.07954 1.11753 7.69946 0.760692C7.66458 0.727779 7.62147 0.704882 7.57467 0.694416C7.52787 0.683949 7.47912 0.686299 7.43354 0.701219C6.10497 1.1578 4.82309 1.74037 3.60542 2.44097C2.42993 3.1243 1.31705 3.91007 0.279734 4.78911C0.243524 4.81989 0.216376 4.85995 0.201202 4.90499C0.186028 4.95003 0.183401 4.99835 0.193601 5.04477C0.336472 5.71059 1.01938 8.49009 3.13852 12.3401C5.30073 16.2694 6.79917 18.2826 9.97446 21.4469C13.1498 24.6113 15.2265 26.1999 19.1599 28.3622C23.0099 30.4813 25.7908 31.1649 26.4552 31.3064C26.5017 31.3165 26.5501 31.3138 26.5953 31.2987C26.6404 31.2835 26.6806 31.2564 26.7116 31.2203C27.5905 30.183 28.376 29.0701 29.059 27.8946C29.7595 26.6768 30.3421 25.395 30.7988 24.0665C30.8134 24.0212 30.8156 23.9729 30.8053 23.9265C30.795 23.8801 30.7724 23.8373 30.74 23.8026Z" fill="#222222"/>
</svg>
